<svg width="204" height="270" viewBox="0 0 204 270" fill="none" xmlns="http://www.w3.org/2000/svg">
<path d="M3.50155 88.0786C3.50155 40.8963 41.7614 2.65397 88.9612 2.65397L116.079 2.65397C111.467 2.65397 106.936 3.01815 102.52 3.7255C61.7598 10.2177 30.6189 45.5116 30.6189 88.0786C30.6189 120.291 56.7348 146.4 88.9612 146.4C93.6325 146.4 98.1672 145.854 102.52 144.814C128.195 138.703 147.293 115.62 147.293 88.0786C147.293 60.541 128.195 37.4611 102.52 31.3506C106.869 30.3106 111.407 29.7608 116.079 29.7608C148.294 29.7608 174.414 55.8732 174.414 88.0786C174.414 130.642 143.269 165.947 102.52 172.435C98.1007 173.143 93.5695 173.51 88.9612 173.51L88.9542 173.51C41.7544 173.503 3.50154 135.261 3.50155 88.0786Z" fill="#FFDE59"/>
<path d="M201.013 88.415C201.013 135.597 162.753 173.84 115.553 173.84H88.4361C93.0479 173.84 97.5791 173.475 101.995 172.768C142.755 166.276 173.896 130.982 173.896 88.415C173.896 56.2026 147.78 30.0938 115.553 30.0938C110.882 30.0938 106.347 30.64 101.995 31.6801C76.3201 37.7906 57.2217 60.874 57.2217 88.415C57.2217 115.953 76.3201 139.033 101.995 145.143C97.6456 146.183 93.1074 146.733 88.4361 146.733C56.2202 146.733 30.1008 120.62 30.1008 88.415C30.1008 45.8515 61.2452 10.5471 101.995 4.05843C106.414 3.35108 110.945 2.9834 115.553 2.9834H115.56C162.76 2.9904 201.013 41.2328 201.013 88.415Z" fill="#4AB7DA"/>
<path d="M115.554 176.823H88.4362C86.7869 176.823 85.4527 175.489 85.4527 173.843C85.4527 172.194 86.7869 170.86 88.4362 170.86C92.8238 170.86 97.2255 170.51 101.522 169.82C141.732 163.419 170.912 129.182 170.912 88.4151C170.912 57.9011 146.078 33.0773 115.554 33.0773C111.194 33.0773 106.866 33.5851 102.692 34.5831C77.6754 40.536 60.2052 62.6739 60.2052 88.4151C60.2052 114.156 77.6754 136.287 102.685 142.24C104.029 142.559 104.978 143.76 104.978 145.14C104.982 146.523 104.033 147.724 102.692 148.046C98.0554 149.153 93.2615 149.716 88.4362 149.716C54.6235 149.716 27.1174 122.217 27.1174 88.4151C27.1174 44.696 58.4124 7.98044 101.526 1.11355C106.127 0.374685 110.847 0 115.554 0C164.326 0.0070039 204 39.6711 204 88.4151C204 137.166 164.322 176.823 115.554 176.823ZM115.554 27.1104C149.37 27.1104 176.879 54.6129 176.879 88.4151C176.879 125.568 154.276 157.665 121.023 170.681C163.958 167.855 198.03 132.04 198.03 88.4151C198.03 42.9592 161.034 5.97395 115.561 5.96694C111.162 5.96694 106.757 6.31712 102.468 7.00345C62.2643 13.4046 33.0879 47.6445 33.0879 88.4151C33.0879 118.926 57.9151 143.749 88.4362 143.749C88.6498 143.749 88.8634 143.746 89.0735 143.746C68.0631 133.762 54.2348 112.514 54.2348 88.4151C54.2348 59.897 73.5923 35.3744 101.305 28.7807C105.931 27.6706 110.728 27.1104 115.554 27.1104Z" fill="#231F20"/>
<path d="M88.4361 176.823C39.6711 176.823 0 137.166 0 88.4151C0 39.9652 39.4224 0.30465 87.8793 0H115.553C117.203 0 118.54 1.33766 118.54 2.98347C118.54 4.63278 117.203 5.96694 115.553 5.96694C111.162 5.96694 106.757 6.31712 102.468 7.00345C62.2642 13.4046 33.0878 47.6445 33.0878 88.4151C33.0878 118.926 57.9151 143.749 88.4361 143.749C92.7958 143.749 97.1204 143.242 101.301 142.24C126.321 136.287 143.795 114.156 143.795 88.4151C143.795 62.6704 126.321 40.536 101.305 34.5831C99.9603 34.2644 99.0113 33.0633 99.0113 31.6836C99.0113 30.3039 99.9568 29.1029 101.301 28.7807C105.931 27.6706 110.728 27.1104 115.553 27.1104C149.37 27.1104 176.879 54.6129 176.879 88.4151C176.879 132.131 145.584 168.846 102.464 175.713C97.8593 176.449 93.1389 176.823 88.4361 176.823ZM82.9769 6.14553C40.0878 8.96442 5.96694 44.8886 5.96694 88.4151C5.96694 133.875 42.9627 170.86 88.4361 170.86C92.8238 170.86 97.2254 170.51 101.522 169.82C141.732 163.419 170.912 129.182 170.912 88.4151C170.912 57.9011 146.078 33.0773 115.553 33.0773C115.343 33.0773 115.13 33.0773 114.92 33.0808C135.934 43.0642 149.762 64.3127 149.762 88.4151C149.762 116.93 130.404 141.452 102.685 148.046C98.0554 149.153 93.2615 149.716 88.4361 149.716C54.6234 149.716 27.1174 122.217 27.1174 88.4151C27.1174 51.2583 49.721 19.1579 82.9769 6.14553Z" fill="#231F20"/>
<path d="M118.758 176.824H115.554C113.908 176.824 112.57 175.49 112.57 173.844C112.57 172.195 113.908 170.86 115.554 170.86H118.758C120.407 170.86 121.741 172.195 121.741 173.844C121.741 175.49 120.407 176.824 118.758 176.824Z" fill="#231F20"/>
<path d="M23.4307 200.415C22.708 196.382 19.5132 194 15.5957 194C10.6132 194 7 197.88 7 204.102C7 210.325 10.6132 214.204 15.5957 214.204C19.5132 214.204 22.708 211.823 23.4307 207.79H21.0726C20.5021 210.517 18.182 211.976 15.5957 211.976C12.0585 211.976 9.28204 209.211 9.28204 204.102C9.28204 198.993 12.0585 196.228 15.5957 196.228C18.182 196.228 20.5021 197.687 21.0726 200.415H23.4307Z" fill="black"/>
<path d="M43.6719 204.102C43.6719 197.88 40.0587 194 35.0762 194C30.0938 194 26.4805 197.88 26.4805 204.102C26.4805 210.325 30.0938 214.204 35.0762 214.204C40.0587 214.204 43.6719 210.325 43.6719 204.102ZM41.3898 204.102C41.3898 209.211 38.6134 211.976 35.0762 211.976C31.539 211.976 28.7626 209.211 28.7626 204.102C28.7626 198.993 31.539 196.228 35.0762 196.228C38.6134 196.228 41.3898 198.993 41.3898 204.102Z" fill="black"/>
<path d="M55.7001 203.046H47.1805V205.158H55.7001V203.046Z" fill="black"/>
<path d="M75.6228 200.415C74.9002 196.382 71.7053 194 67.7878 194C62.8054 194 59.1921 197.88 59.1921 204.102C59.1921 210.325 62.8054 214.204 67.7878 214.204C71.7053 214.204 74.9002 211.823 75.6228 207.79H73.2647C72.6942 210.517 70.3741 211.976 67.7878 211.976C64.2506 211.976 61.4742 209.211 61.4742 204.102C61.4742 198.993 64.2506 196.228 67.7878 196.228C70.3741 196.228 72.6942 197.687 73.2647 200.415H75.6228Z" fill="black"/>
<path d="M79.4333 213.935H81.7914V206.253H86.0512C86.2224 206.253 86.384 206.253 86.5457 206.244L90.6534 213.935H93.3918L88.9894 205.811C91.4711 204.957 92.6311 202.911 92.6311 200.299C92.6311 196.823 90.5773 194.269 86.0132 194.269H79.4333V213.935ZM81.7914 204.102V196.382H85.9371C89.094 196.382 90.311 197.937 90.311 200.299C90.311 202.662 89.094 204.102 85.9752 204.102H81.7914Z" fill="black"/>
<path d="M96.5605 213.935H108.465V211.823H98.9186V205.139H107.704V203.027H98.9186V196.382H108.313V194.269H96.5605V213.935Z" fill="black"/>
<path d="M113.362 213.935L115.321 208.366H123.194L125.153 213.935H127.625L120.474 194.269H118.04L110.89 213.935H113.362ZM116.062 206.253L119.181 197.38H119.333L122.452 206.253H116.062Z" fill="black"/>
<path d="M127.318 196.382H133.442V213.935H135.8V196.382H141.923V194.269H127.318V196.382Z" fill="black"/>
<path d="M147.921 194.269H145.563V213.935H147.921V194.269Z" fill="black"/>
<path d="M169.079 204.102C169.079 197.88 165.466 194 160.484 194C155.501 194 151.888 197.88 151.888 204.102C151.888 210.325 155.501 214.204 160.484 214.204C165.466 214.204 169.079 210.325 169.079 204.102ZM166.797 204.102C166.797 209.211 164.021 211.976 160.484 211.976C156.947 211.976 154.17 209.211 154.17 204.102C154.17 198.993 156.947 196.228 160.484 196.228C164.021 196.228 166.797 198.993 166.797 204.102Z" fill="black"/>
<path d="M188.486 194.269H186.166V209.749H185.976L175.326 194.269H173.044V213.935H175.403V198.494H175.593L186.204 213.935H188.486V194.269Z" fill="black"/>
<path d="M37.9315 218.197H30.5548V240.46H30.2467L15.1168 218.197H8.61296V253.596H16.0239V231.316H16.2806L31.5303 253.596H37.9315V218.197Z" fill="black"/>
<path d="M50.0961 253.596L52.6977 245.524H65.3459L67.9474 253.596H75.8889L63.8055 218.197H54.2552L42.1546 253.596H50.0961ZM54.5803 239.682L58.8934 226.286H59.1672L63.4803 239.682H54.5803Z" fill="black"/>
<path d="M74.4426 224.367H85.1739V253.596H92.4993V224.367H103.231V218.197H74.4426V224.367Z" fill="black"/>
<path d="M115.382 218.197H107.971V253.596H115.382V218.197Z" fill="black"/>
<path d="M153.691 235.897C153.691 224.315 146.571 217.713 137.277 217.713C127.932 217.713 120.864 224.315 120.864 235.897C120.864 247.426 127.932 254.08 137.277 254.08C146.571 254.08 153.691 247.478 153.691 235.897ZM146.177 235.897C146.177 243.398 142.651 247.46 137.277 247.46C131.886 247.46 128.377 243.398 128.377 235.897C128.377 228.395 131.886 224.333 137.277 224.333C142.651 224.333 146.177 228.395 146.177 235.897Z" fill="black"/>
<path d="M188.499 218.197H181.122V240.46H180.814L165.684 218.197H159.18V253.596H166.591V231.316H166.848L182.098 253.596H188.499V218.197Z" fill="black"/>
<path d="M8.6982 269.821H14.8489V268.73H9.91655V265.277H14.4559V264.185H9.91655V260.752H14.7703V259.66H8.6982V269.821Z" fill="black"/>
<path d="M17.5558 259.66H16.1213L19.3637 264.741L16.1213 269.821H17.5558L20.1498 265.674H20.2284L22.8223 269.821H24.2568L21.093 264.741L24.2568 259.66H22.8223L20.2284 263.887H20.1498L17.5558 259.66Z" fill="black"/>
<path d="M25.8424 269.821H31.9931V268.73H27.0607V265.277H31.6001V264.185H27.0607V260.752H31.9145V259.66H25.8424V269.821Z" fill="black"/>
<path d="M42.2066 262.836C41.8333 260.752 40.1826 259.521 38.1586 259.521C35.5843 259.521 33.7175 261.526 33.7175 264.741C33.7175 267.956 35.5843 269.96 38.1586 269.96C40.1826 269.96 41.8333 268.73 42.2066 266.646H40.9883C40.6935 268.055 39.4948 268.809 38.1586 268.809C36.331 268.809 34.8965 267.38 34.8965 264.741C34.8965 262.101 36.331 260.672 38.1586 260.672C39.4948 260.672 40.6935 261.427 40.9883 262.836H42.2066Z" fill="black"/>
<path d="M50.7781 259.66V266.289C50.7781 267.777 49.7661 268.849 48.0859 268.849C46.4058 268.849 45.3938 267.777 45.3938 266.289V259.66H44.1754V266.388C44.1754 268.472 45.718 270 48.0859 270C50.4539 270 51.9965 268.472 51.9965 266.388V259.66H50.7781Z" fill="black"/>
<path d="M53.8793 260.752H57.0431V269.821H58.2614V260.752H61.4252V259.66H53.8793V260.752Z" fill="black"/>
<path d="M64.5239 259.66H63.3056V269.821H64.5239V259.66Z" fill="black"/>
<path d="M74.945 259.66H73.7463V267.658H73.6481L68.1458 259.66H66.9668V269.821H68.1851V261.843H68.2834L73.766 269.821H74.945V259.66Z" fill="black"/>
<path d="M84.2608 262.836H85.5184C85.1451 260.871 83.514 259.521 81.3917 259.521C78.8126 259.521 76.9899 261.526 76.9899 264.741C76.9899 267.956 78.7978 269.96 81.4703 269.96C83.8678 269.96 85.5774 268.348 85.5774 265.832V264.741H81.7455V265.832H84.3983C84.3639 267.658 83.1751 268.809 81.4703 268.809C79.6035 268.809 78.169 267.38 78.169 264.741C78.169 262.101 79.6035 260.672 81.3917 260.672C82.8459 260.672 83.8334 261.501 84.2608 262.836Z" fill="black"/>
<path d="M92.7733 259.66H91.5549V269.821H92.7733V259.66Z" fill="black"/>
<path d="M103.194 259.66H101.996V267.658H101.897L96.3952 259.66H95.2161V269.821H96.4345V261.843H96.5327L102.015 269.821H103.194V259.66Z" fill="black"/>
<path d="M109.936 269.821L110.948 266.944H115.016L116.028 269.821H117.305L113.611 259.66H112.353L108.659 269.821H109.936ZM111.331 265.852L112.942 261.268H113.021L114.632 265.852H111.331Z" fill="black"/>
<path d="M118.872 269.821H124.767V268.73H120.09V259.66H118.872V269.821Z" fill="black"/>
<path d="M127.872 259.66H126.654V269.821H127.872V259.66Z" fill="black"/>
<path d="M137.193 262.836H138.451C138.077 260.871 136.446 259.521 134.324 259.521C131.745 259.521 129.922 261.526 129.922 264.741C129.922 267.956 131.73 269.96 134.402 269.96C136.8 269.96 138.51 268.348 138.51 265.832V264.741H134.678V265.832H137.33C137.296 267.658 136.107 268.809 134.402 268.809C132.536 268.809 131.101 267.38 131.101 264.741C131.101 262.101 132.536 260.672 134.324 260.672C135.778 260.672 136.765 261.501 137.193 262.836Z" fill="black"/>
<path d="M148.574 259.66H147.376V267.658H147.277L141.775 259.66H140.596V269.821H141.815V261.843H141.913L147.395 269.821H148.574V259.66Z" fill="black"/>
<path d="M151.012 259.66V269.821H152.152V262.101H152.25L155.395 269.821H156.495L159.639 262.101H159.737V269.821H160.877V259.66H159.423L156.004 268.095H155.886L152.467 259.66H151.012Z" fill="black"/>
<path d="M163.32 269.821H169.471V268.73H164.538V265.277H169.078V264.185H164.538V260.752H169.392V259.66H163.32V269.821Z" fill="black"/>
<path d="M179.566 259.66H178.368V267.658H178.269L172.767 259.66H171.588V269.821H172.806V261.843H172.905L178.387 269.821H179.566V259.66Z" fill="black"/>
<path d="M181.454 260.752H184.618V269.821H185.836V260.752H189V259.66H181.454V260.752Z" fill="black"/>
</svg>
