<svg width="422" height="131" viewBox="0 0 422 131" fill="none" xmlns="http://www.w3.org/2000/svg">
<path d="M2.57488 64.7637C2.57489 30.0709 30.7071 1.9515 65.4128 1.95151L85.3521 1.95151C81.9611 1.95151 78.6293 2.21929 75.3824 2.7394C45.4118 7.51307 22.5141 33.4645 22.5141 64.7637C22.5141 88.4493 41.717 107.647 65.4128 107.647C68.8476 107.647 72.182 107.245 75.3824 106.481C94.2609 101.988 108.304 85.0145 108.304 64.7637C108.304 44.5155 94.2609 27.545 75.3824 23.052C78.5803 22.2873 81.9173 21.883 85.3521 21.883C109.04 21.883 128.246 41.0833 128.246 64.7637C128.246 96.0604 105.345 122.019 75.3824 126.791C72.133 127.311 68.8013 127.581 65.4128 127.581L65.4077 127.581C30.702 127.576 2.57488 99.4565 2.57488 64.7637Z" fill="#FFDE59"/>
<path d="M147.804 65.0107C147.804 99.7035 119.671 127.823 84.9656 127.823H65.0264C68.4174 127.823 71.7492 127.555 74.996 127.035C104.967 122.261 127.864 96.3099 127.864 65.0107C127.864 41.3251 108.661 22.1274 84.9656 22.1274C81.5308 22.1274 78.1965 22.5291 74.996 23.2938C56.1176 27.7869 42.0746 44.7599 42.0746 65.0107C42.0746 85.2589 56.1176 102.229 74.996 106.722C71.7981 107.487 68.4611 107.891 65.0264 107.891C41.3382 107.891 22.1328 88.6911 22.1328 65.0107C22.1328 33.714 45.0331 7.75492 74.996 2.98382C78.2454 2.46371 81.5772 2.19336 84.9656 2.19336H84.9708C119.676 2.19851 147.804 30.3179 147.804 65.0107Z" fill="#4AB7DA"/>
<path d="M84.9657 130.017H65.0265C63.8138 130.017 62.8328 129.036 62.8328 127.826C62.8328 126.613 63.8138 125.632 65.0265 125.632C68.2527 125.632 71.4892 125.375 74.6485 124.867C104.215 120.161 125.671 94.9869 125.671 65.0111C125.671 42.5743 107.41 24.3215 84.9657 24.3215C81.7601 24.3215 78.5777 24.6949 75.5085 25.4287C57.1141 29.8059 44.2685 46.0837 44.2685 65.0111C44.2685 83.9384 57.1141 100.211 75.5033 104.588C76.4921 104.823 77.1898 105.706 77.1898 106.72C77.1924 107.737 76.4946 108.62 75.5085 108.857C72.0995 109.671 68.5746 110.085 65.0265 110.085C40.1642 110.085 19.9392 89.8656 19.9392 65.0111C19.9392 32.8647 42.9502 5.86796 74.6511 0.818786C78.0344 0.275503 81.5052 0 84.9657 0C120.828 0.00514993 150 29.1699 150 65.0111C150 100.857 120.825 130.017 84.9657 130.017ZM84.9657 19.9341C109.831 19.9341 130.058 40.1565 130.058 65.0111C130.058 92.3297 113.438 115.93 88.9876 125.501C120.557 123.423 145.61 97.0879 145.61 65.0111C145.61 31.5876 118.407 4.39261 84.9709 4.38746C81.7369 4.38746 78.4978 4.64494 75.3437 5.1496C45.7825 9.85633 24.3292 35.0327 24.3292 65.0111C24.3292 87.4453 42.5846 105.698 65.0265 105.698C65.1836 105.698 65.3406 105.695 65.4951 105.695C50.0463 98.3547 39.8784 82.7308 39.8784 65.0111C39.8784 44.0419 54.1119 26.0106 74.4889 21.1623C77.8902 20.3461 81.4177 19.9341 84.9657 19.9341Z" fill="#231F20"/>
<path d="M65.0265 130.017C29.1699 130.017 0 100.857 0 65.0111C0 29.3862 28.9871 0.224008 64.6171 0H84.9658C86.1785 0 87.1621 0.983573 87.1621 2.19373C87.1621 3.40646 86.1785 4.38746 84.9658 4.38746C81.737 4.38746 78.4979 4.64494 75.3437 5.1496C45.7825 9.85633 24.3293 35.0327 24.3293 65.0111C24.3293 87.4453 42.5846 105.698 65.0265 105.698C68.2321 105.698 71.412 105.325 74.4863 104.588C92.8833 100.211 105.732 83.9384 105.732 65.0111C105.732 46.0812 92.8833 29.8059 74.4889 25.4287C73.5002 25.1944 72.8024 24.3112 72.8024 23.2968C72.8024 22.2823 73.4976 21.3991 74.4863 21.1623C77.8902 20.3461 81.4177 19.9341 84.9658 19.9341C109.831 19.9341 130.058 40.1565 130.058 65.0111C130.058 97.1549 107.047 124.152 75.3412 129.201C71.9553 129.741 68.4845 130.017 65.0265 130.017ZM61.0124 4.51877C29.4763 6.59148 4.38746 33.0063 4.38746 65.0111C4.38746 98.4371 31.5902 125.632 65.0265 125.632C68.2527 125.632 71.4893 125.375 74.6485 124.867C104.215 120.161 125.671 94.9869 125.671 65.0111C125.671 42.5743 107.41 24.3215 84.9658 24.3215C84.8113 24.3215 84.6542 24.3215 84.4997 24.3241C99.9511 31.6649 110.119 47.2887 110.119 65.0111C110.119 85.9777 95.8855 104.009 75.5034 108.857C72.0995 109.671 68.5746 110.085 65.0265 110.085C40.1643 110.085 19.9392 89.8656 19.9392 65.0111C19.9392 37.6899 36.5596 14.0867 61.0124 4.51877Z" fill="#231F20"/>
<path d="M87.3216 130.017H84.9657C83.7555 130.017 82.772 129.036 82.772 127.826C82.772 126.613 83.7555 125.632 84.9657 125.632H87.3216C88.5344 125.632 89.5154 126.613 89.5154 127.826C89.5154 129.036 88.5344 130.017 87.3216 130.017Z" fill="#231F20"/>
<path d="M186.995 16C185.97 10.3324 181.436 6.98584 175.876 6.98584C168.805 6.98584 163.677 12.4375 163.677 21.1819C163.677 29.9262 168.805 35.3779 175.876 35.3779C181.436 35.3779 185.97 32.0313 186.995 26.3637H183.649C182.839 30.1961 179.547 32.2472 175.876 32.2472C170.856 32.2472 166.916 28.3608 166.916 21.1819C166.916 14.0029 170.856 10.1165 175.876 10.1165C179.547 10.1165 182.839 12.1677 183.649 16H186.995Z" fill="black"/>
<path d="M215.721 21.1819C215.721 12.4375 210.594 6.98584 203.523 6.98584C196.452 6.98584 191.324 12.4375 191.324 21.1819C191.324 29.9262 196.452 35.3779 203.523 35.3779C210.594 35.3779 215.721 29.9262 215.721 21.1819ZM212.483 21.1819C212.483 28.3608 208.542 32.2472 203.523 32.2472C198.503 32.2472 194.562 28.3608 194.562 21.1819C194.562 14.0029 198.503 10.1165 203.523 10.1165C208.542 10.1165 212.483 14.0029 212.483 21.1819Z" fill="black"/>
<path d="M232.792 19.6975H220.701V22.6662H232.792V19.6975Z" fill="black"/>
<path d="M261.066 16C260.04 10.3324 255.506 6.98584 249.946 6.98584C242.875 6.98584 237.748 12.4375 237.748 21.1819C237.748 29.9262 242.875 35.3779 249.946 35.3779C255.506 35.3779 260.04 32.0313 261.066 26.3637H257.719C256.909 30.1961 253.617 32.2472 249.946 32.2472C244.927 32.2472 240.986 28.3608 240.986 21.1819C240.986 14.0029 244.927 10.1165 249.946 10.1165C253.617 10.1165 256.909 12.1677 257.719 16H261.066Z" fill="black"/>
<path d="M266.474 35H269.82V24.2046H275.866C276.109 24.2046 276.338 24.2046 276.567 24.1911L282.397 35H286.283L280.035 23.5839C283.557 22.3829 285.204 19.5086 285.204 15.8381C285.204 10.9532 282.289 7.36368 275.812 7.36368H266.474V35ZM269.82 21.1819V10.3324H275.704C280.184 10.3324 281.911 12.5185 281.911 15.8381C281.911 19.1577 280.184 21.1819 275.758 21.1819H269.82Z" fill="black"/>
<path d="M290.78 35H307.675V32.0313H294.127V22.6392H306.596V19.6705H294.127V10.3324H307.459V7.36368H290.78V35Z" fill="black"/>
<path d="M314.625 35L317.405 27.1733H328.578L331.358 35H334.866L324.718 7.36368H321.264L311.116 35H314.625ZM318.457 24.2046L322.883 11.7358H323.099L327.525 24.2046H318.457Z" fill="black"/>
<path d="M334.431 10.3324H343.121V35H346.468V10.3324H355.158V7.36368H334.431V10.3324Z" fill="black"/>
<path d="M363.67 7.36368H360.323V35H363.67V7.36368Z" fill="black"/>
<path d="M393.698 21.1819C393.698 12.4375 388.57 6.98584 381.499 6.98584C374.428 6.98584 369.3 12.4375 369.3 21.1819C369.3 29.9262 374.428 35.3779 381.499 35.3779C388.57 35.3779 393.698 29.9262 393.698 21.1819ZM390.459 21.1819C390.459 28.3608 386.519 32.2472 381.499 32.2472C376.479 32.2472 372.539 28.3608 372.539 21.1819C372.539 14.0029 376.479 10.1165 381.499 10.1165C386.519 10.1165 390.459 14.0029 390.459 21.1819Z" fill="black"/>
<path d="M421.24 7.36368H417.947V29.1165H417.677L402.564 7.36368H399.325V35H402.672V13.3012H402.942L418.001 35H421.24V7.36368Z" fill="black"/>
<path d="M207.945 48.5455H197.537V79.6478H197.102L175.756 48.5455H166.58V98H177.036V66.8736H177.398L198.913 98H207.945V48.5455Z" fill="black"/>
<path d="M225.108 98L228.778 86.7231H246.623L250.294 98H261.498L244.45 48.5455H230.976L213.903 98H225.108ZM231.434 78.5611L237.52 59.8466H237.906L243.991 78.5611H231.434Z" fill="black"/>
<path d="M259.458 57.1662H274.598V98H284.934V57.1662H300.074V48.5455H259.458V57.1662Z" fill="black"/>
<path d="M317.219 48.5455H306.763V98H317.219V48.5455Z" fill="black"/>
<path d="M371.268 73.2728C371.268 57.0938 361.222 47.8694 348.11 47.8694C334.925 47.8694 324.952 57.0938 324.952 73.2728C324.952 89.3793 334.925 98.6762 348.11 98.6762C361.222 98.6762 371.268 89.4518 371.268 73.2728ZM360.667 73.2728C360.667 83.7529 355.693 89.4276 348.11 89.4276C340.504 89.4276 335.553 83.7529 335.553 73.2728C335.553 62.7927 340.504 57.1179 348.11 57.1179C355.693 57.1179 360.667 62.7927 360.667 73.2728Z" fill="black"/>
<path d="M420.378 48.5455H409.971V79.6478H409.536L388.189 48.5455H379.013V98H389.469V66.8736H389.831L411.347 98H420.378V48.5455Z" fill="black"/>
<path d="M167.134 128H175.499V126.837H168.429V121.484H174.924V120.321H168.429V114.982H175.36V113.818H167.134V128Z" fill="black"/>
<path d="M178.934 113.818H177.403L182.036 120.909L177.403 128H178.934L182.86 121.913H182.95L186.876 128H188.407L183.843 120.909L188.407 113.818H186.876L182.95 119.974H182.86L178.934 113.818Z" fill="black"/>
<path d="M190.861 128H199.226V126.837H192.156V121.484H198.652V120.321H192.156V114.982H199.088V113.818H190.861V128Z" fill="black"/>
<path d="M213.547 118.25C213.083 115.639 210.95 113.624 207.931 113.624C204.351 113.624 201.802 116.47 201.802 120.909C201.802 125.348 204.351 128.194 207.931 128.194C210.95 128.194 213.083 126.172 213.547 123.568H212.245C211.85 125.514 210.154 126.975 207.931 126.975C205.244 126.975 203.056 124.849 203.056 120.909C203.056 116.983 205.244 114.843 207.931 114.843C210.154 114.843 211.85 116.311 212.245 118.25H213.547Z" fill="black"/>
<path d="M226.041 113.818V123.118C226.041 125.376 224.434 127.024 221.962 127.024C219.49 127.024 217.883 125.376 217.883 123.118V113.818H216.588V123.208C216.581 126.103 218.77 128.242 221.962 128.242C225.161 128.242 227.336 126.103 227.336 123.208V113.818H226.041Z" fill="black"/>
<path d="M230.24 114.982H234.735V128H236.03V114.982H240.524V113.818H230.24V114.982Z" fill="black"/>
<path d="M244.734 113.818H243.439V128H244.734V113.818Z" fill="black"/>
<path d="M259.549 113.818H258.275V125.708H258.164L249.758 113.818H248.504V128H249.799V116.124H249.91L258.289 128H259.549V113.818Z" fill="black"/>
<path d="M273.132 118.25H274.462C274.005 115.75 271.879 113.624 268.777 113.624C265.183 113.624 262.683 116.463 262.683 120.909C262.683 125.348 265.155 128.194 268.867 128.194C272.183 128.194 274.559 125.93 274.559 122.294V121.131H269.171V122.294H273.298C273.264 125.196 271.443 126.975 268.867 126.975C266 126.975 263.936 124.718 263.936 120.909C263.936 117.087 266.014 114.843 268.777 114.843C271.117 114.843 272.62 116.367 273.132 118.25Z" fill="black"/>
<path d="M284.553 113.818H283.258V128H284.553V113.818Z" fill="black"/>
<path d="M299.368 113.818H298.094V125.708H297.983L289.577 113.818H288.323V128H289.618V116.124H289.729L298.108 128H299.368V113.818Z" fill="black"/>
<path d="M308.644 128L310.16 123.727H316.116L317.632 128H318.989L313.83 113.818H312.446L307.287 128H308.644ZM310.576 122.564L313.09 115.501H313.186L315.7 122.564H310.576Z" fill="black"/>
<path d="M321.42 128H329.473V126.837H322.715V113.818H321.42V128Z" fill="black"/>
<path d="M333.684 113.818H332.389V128H333.684V113.818Z" fill="black"/>
<path d="M347.266 118.25H348.596C348.139 115.75 346.013 113.624 342.911 113.624C339.317 113.624 336.817 116.463 336.817 120.909C336.817 125.348 339.289 128.194 343.001 128.194C346.318 128.194 348.693 125.93 348.693 122.294V121.131H343.306V122.294H347.433C347.398 125.196 345.577 126.975 343.001 126.975C340.134 126.975 338.07 124.718 338.07 120.909C338.07 117.087 340.148 114.843 342.911 114.843C345.251 114.843 346.754 116.367 347.266 118.25Z" fill="black"/>
<path d="M362.953 113.818H361.679V125.708H361.568L353.161 113.818H351.908V128H353.203V116.124H353.313L361.692 128H362.953V113.818Z" fill="black"/>
<path d="M366.723 113.818V128H367.942V116.553H368.053L372.838 128H374.015L378.8 116.553H378.911V128H380.129V113.818H378.634L373.489 126.172H373.364L368.219 113.818H366.723Z" fill="black"/>
<path d="M383.9 128H392.265V126.837H385.195V121.484H391.69V120.321H385.195V114.982H392.126V113.818H383.9V128Z" fill="black"/>
<path d="M406.523 113.818H405.249V125.708H405.138L396.731 113.818H395.478V128H396.773V116.124H396.884L405.263 128H406.523V113.818Z" fill="black"/>
<path d="M409.435 114.982H413.929V128H415.224V114.982H419.718V113.818H409.435V114.982Z" fill="black"/>
</svg>
