<svg width="51" height="45" viewBox="0 0 51 45" fill="none" xmlns="http://www.w3.org/2000/svg">
<path d="M0.875467 22.0195C0.875468 10.224 10.4404 0.663392 22.2404 0.663393L29.0197 0.663394C27.8668 0.663394 26.734 0.754438 25.63 0.931276C15.44 2.55432 7.65481 11.3778 7.65481 22.0195C7.65481 30.0726 14.1838 36.5998 22.2404 36.5999C23.4082 36.5999 24.5419 36.4633 25.63 36.2033C32.0487 34.6757 36.8233 28.9048 36.8233 22.0195C36.8233 15.1352 32.0487 9.36518 25.63 7.83755C26.7173 7.57755 27.8519 7.44011 29.0197 7.44011C37.0737 7.44011 43.6035 13.9682 43.6035 22.0195C43.6035 32.6604 35.8174 41.4865 25.63 43.1087C24.5252 43.2855 23.3924 43.3774 22.2404 43.3774L22.2386 43.3774C10.4387 43.3757 0.875466 33.8151 0.875467 22.0195Z" fill="#FFDE59"/>
<path d="M50.2532 22.1035C50.2532 33.8991 40.6882 43.4597 28.8883 43.4597H22.109C23.2619 43.4597 24.3947 43.3686 25.4986 43.1918C35.6886 41.5687 43.4739 32.7452 43.4739 22.1035C43.4739 14.0504 36.9449 7.52319 28.8883 7.52319C27.7205 7.52319 26.5868 7.65976 25.4986 7.91977C19.08 9.44739 14.3054 15.2182 14.3054 22.1035C14.3054 28.9879 19.08 34.7579 25.4986 36.2855C24.4113 36.5455 23.2768 36.6829 22.109 36.6829C14.055 36.6829 7.52515 30.1548 7.52515 22.1035C7.52515 11.4626 15.3112 2.63654 25.4986 1.01436C26.6034 0.837526 27.7362 0.745605 28.8883 0.745605H28.89C40.69 0.747356 50.2532 10.3079 50.2532 22.1035Z" fill="#4AB7DA"/>
<path d="M28.8883 44.2058H22.109C21.6966 44.2058 21.3631 43.8722 21.3631 43.4608C21.3631 43.0485 21.6966 42.7149 22.109 42.7149C23.2059 42.7149 24.3063 42.6274 25.3805 42.4549C35.433 40.8546 42.728 32.2955 42.728 22.1038C42.728 14.4753 36.5194 8.26932 28.8883 8.26932C27.7984 8.26932 26.7164 8.39626 25.6729 8.64576C19.4188 10.134 15.0512 15.6685 15.0512 22.1038C15.0512 28.5391 19.4188 34.0718 25.6711 35.56C26.0073 35.6397 26.2445 35.94 26.2445 36.2849C26.2454 36.6307 26.0081 36.9309 25.6729 37.0115C24.5138 37.2881 23.3153 37.4291 22.109 37.4291C13.6558 37.4291 6.7793 30.5543 6.7793 22.1038C6.7793 11.174 14.603 1.99511 25.3813 0.278387C26.5317 0.0936711 27.7117 0 28.8883 0C41.0813 0.00175097 51 9.91776 51 22.1038C51 34.2915 41.0804 44.2058 28.8883 44.2058ZM28.8883 6.77759C37.3424 6.77759 44.2197 13.6532 44.2197 22.1038C44.2197 31.3921 38.5688 39.4163 30.2557 42.6703C40.9894 41.9638 49.5073 33.0099 49.5073 22.1038C49.5073 10.7398 40.2584 1.49349 28.8901 1.49174C27.7905 1.49174 26.6892 1.57928 25.6168 1.75086C15.566 3.35115 8.27191 11.9111 8.27191 22.1038C8.27191 29.7314 14.4787 35.9373 22.109 35.9373C22.1624 35.9373 22.2158 35.9365 22.2683 35.9365C17.0157 33.4406 13.5586 28.1285 13.5586 22.1038C13.5586 14.9743 18.398 8.84361 25.3262 7.19517C26.4826 6.91766 27.682 6.77759 28.8883 6.77759Z" fill="#231F20"/>
<path d="M22.109 44.2058C9.91776 44.2058 0 34.2915 0 22.1038C0 9.9913 9.85561 0.0761626 21.9698 0H28.8884C29.3007 0 29.6351 0.334415 29.6351 0.745868C29.6351 1.1582 29.3007 1.49174 28.8884 1.49174C27.7906 1.49174 26.6893 1.57928 25.6169 1.75086C15.566 3.35115 8.27195 11.9111 8.27195 22.1038C8.27195 29.7314 14.4788 35.9373 22.109 35.9373C23.1989 35.9373 24.2801 35.8104 25.3254 35.56C31.5803 34.0718 35.9487 28.5391 35.9487 22.1038C35.9487 15.6676 31.5803 10.134 25.3262 8.64576C24.9901 8.5661 24.7528 8.26582 24.7528 7.9209C24.7528 7.57598 24.9892 7.27571 25.3254 7.19517C26.4827 6.91766 27.682 6.77759 28.8884 6.77759C37.3424 6.77759 44.2198 13.6532 44.2198 22.1038C44.2198 33.0327 36.3961 42.2115 25.616 43.9283C24.4648 44.1121 23.2847 44.2058 22.109 44.2058ZM20.7442 1.53638C10.0219 2.2411 1.49174 11.2222 1.49174 22.1038C1.49174 33.4686 10.7407 42.7149 22.109 42.7149C23.2059 42.7149 24.3064 42.6274 25.3805 42.4549C35.4331 40.8546 42.7281 32.2955 42.7281 22.1038C42.7281 14.4753 36.5195 8.26932 28.8884 8.26932C28.8358 8.26932 28.7824 8.26932 28.7299 8.2702C33.9834 10.7661 37.4404 16.0782 37.4404 22.1038C37.4404 29.2324 32.6011 35.363 25.6711 37.0115C24.5138 37.2881 23.3154 37.4291 22.109 37.4291C13.6559 37.4291 6.77934 30.5543 6.77934 22.1038C6.77934 12.8146 12.4302 4.78948 20.7442 1.53638Z" fill="#231F20"/>
<path d="M29.6895 44.2057H28.8884C28.477 44.2057 28.1426 43.8722 28.1426 43.4607C28.1426 43.0484 28.477 42.7148 28.8884 42.7148H29.6895C30.1018 42.7148 30.4353 43.0484 30.4353 43.4607C30.4353 43.8722 30.1018 44.2057 29.6895 44.2057Z" fill="#231F20"/>
</svg>
